<?xml version="1.0" encoding="utf-8"?>
<svg viewBox="0 0 500 500" xmlns="http://www.w3.org/2000/svg">
    <g transform="matrix(1, 0, 0, 1, -1419.168457, -906.335754)">
        <g transform="matrix(1, 0, 0, 1, 1134.082886, 533.197449)">
            <g>
                <path class="st0"
                      d="M437.4,701.4c-0.3,0-0.5,0-0.8,0c-46.7-5.9-82-45.9-82-93.1c0-51.1,41-92.8,91.8-93.8 c11.9-39.5,48.1-66.6,89.7-66.6c23.1,0,45.1,8.4,62.3,23.8c7-3.4,14.7-5.1,22.5-5.1c28.9,0,52.4,23.5,52.4,52.4c0,3-0.3,6-0.8,9.1 c28,17,45.2,47.3,45.2,80.3c0,44.6-31.7,83.4-75.5,92.1c-3.4,0.7-6.6-1.5-7.2-4.8c-0.7-3.3,1.5-6.6,4.8-7.2 c38-7.6,65.6-41.2,65.6-80c0-30-16.4-57.5-42.8-71.8c-2.5-1.4-3.8-4.3-3-7c1-3.5,1.5-7.1,1.5-10.5c0-22.1-18-40.1-40.1-40.1 c-7.1,0-14.2,1.9-20.3,5.6c-2.4,1.4-5.5,1-7.4-0.9c-15.3-15.1-35.6-23.3-56.9-23.3c-37.6,0-70.1,25.5-79.1,62 c-0.7,2.8-3.3,4.9-6.1,4.7l-1.4-0.1c-0.4,0-0.7-0.1-1.1-0.1c-45,0-81.5,36.6-81.5,81.5c0,41,30.6,75.8,71.2,80.9 c3.4,0.4,5.8,3.5,5.3,6.9C443.1,699.2,440.4,701.4,437.4,701.4z"
                      style="fill: #E0E0E2;"/>
            </g>
            <g>
                <path class="st0"
                      d="M598.4,659.2h-122c-17.5,0-31.7-14.2-31.7-31.7c0-17.5,14.2-31.7,31.7-31.7h122c17.5,0,31.7,14.2,31.7,31.7 C630.1,645,615.9,659.2,598.4,659.2z M476.5,608.2c-10.7,0-19.4,8.7-19.4,19.4c0,10.7,8.7,19.4,19.4,19.4h122 c10.7,0,19.4-8.7,19.4-19.4c0-10.7-8.7-19.4-19.4-19.4H476.5z"
                      style="fill: #E0E0E2;"/>
            </g>
            <g>
                <path class="st0"
                      d="M598.4,727h-122c-17.5,0-31.7-14.2-31.7-31.7c0-17.5,14.2-31.7,31.7-31.7h122c17.5,0,31.7,14.2,31.7,31.7 C630.1,712.8,615.9,727,598.4,727z M476.5,675.9c-10.7,0-19.4,8.7-19.4,19.4c0,10.7,8.7,19.4,19.4,19.4h122 c10.7,0,19.4-8.7,19.4-19.4c0-10.7-8.7-19.4-19.4-19.4H476.5z"
                      style="fill: #E0E0E2;"/>
            </g>
            <g>
                <path class="st0"
                      d="M598.4,794.7h-122c-17.5,0-31.7-14.2-31.7-31.7s14.2-31.7,31.7-31.7h122c17.5,0,31.7,14.2,31.7,31.7 S615.9,794.7,598.4,794.7z M476.5,743.7c-10.7,0-19.4,8.7-19.4,19.4c0,10.7,8.7,19.4,19.4,19.4h122c10.7,0,19.4-8.7,19.4-19.4 c0-10.7-8.7-19.4-19.4-19.4H476.5z"
                      style="fill: #E0E0E2;"/>
            </g>
            <g>
                <g>
                    <path class="st0" d="M521.8,627.5c0,4.4-3.6,8-8,8c-4.4,0-8-3.6-8-8c0-4.4,3.6-8,8-8C518.3,619.5,521.8,623.1,521.8,627.5z"
                          style="fill: #5193EB;"/>
                </g>
                <g>
                    <path class="st0" d="M544.2,627.5c0,4.4-3.6,8-8,8c-4.4,0-8-3.6-8-8c0-4.4,3.6-8,8-8C540.6,619.5,544.2,623.1,544.2,627.5z"
                          style="fill: #5193EB;"/>
                </g>
                <g>
                    <ellipse transform="matrix(0.9246 -0.3808 0.3808 0.9246 -196.8905 259.9929)" class="st0" cx="558.5" cy="627.5" rx="8"
                             ry="8" style="fill: #5193EB;"/>
                </g>
            </g>
            <g>
                <g>
                    <path class="st0" d="M521.8,695.3c0,4.4-3.6,8-8,8c-4.4,0-8-3.6-8-8c0-4.4,3.6-8,8-8C518.3,687.3,521.8,690.9,521.8,695.3z"
                          style="fill: #5193EB;"/>
                </g>
                <g>
                    <path class="st0" d="M544.2,695.3c0,4.4-3.6,8-8,8c-4.4,0-8-3.6-8-8c0-4.4,3.6-8,8-8C540.6,687.3,544.2,690.9,544.2,695.3z"
                          style="fill: #5193EB;"/>
                </g>
                <g>
                    <path class="st0" d="M566.5,695.3c0,4.4-3.6,8-8,8c-4.4,0-8-3.6-8-8c0-4.4,3.6-8,8-8C562.9,687.3,566.5,690.9,566.5,695.3z"
                          style="fill: #5193EB;"/>
                </g>
            </g>
            <g>
                <g>
                    <path class="st0" d="M523.1,763.1c0,4.4-3.6,8-8,8c-4.4,0-8-3.6-8-8c0-4.4,3.6-8,8-8C519.5,755.1,523.1,758.7,523.1,763.1z"
                          style="fill: #5193EB;"/>
                </g>
                <g>
                    <ellipse transform="matrix(0.229 -0.9734 0.9734 0.229 -328.3995 1111.5123)" class="st0" cx="537.4" cy="763.1" rx="8"
                             ry="8" style="fill: #5193EB;"/>
                </g>
                <g>
                    <ellipse transform="matrix(0.7071 -0.7071 0.7071 0.7071 -375.6066 619.3256)" class="st0" cx="559.8" cy="763.1" rx="8"
                             ry="8" style="fill: #5193EB;"/>
                </g>
            </g>
        </g>
    </g>
</svg>
