<?xml version="1.0" encoding="utf-8"?>
<svg viewBox="0 0 500 500" xmlns="http://www.w3.org/2000/svg">
    <g transform="matrix(1, 0, 0, 1, -1419.168457, -906.335754)">
        <g transform="matrix(1, 0, 0, 1, 1134.082886, 533.197449)">
            <g transform="matrix(1, 0, 0, 1, 1.94249, -546.77771)">
                <g transform="matrix(1, 0, 0, 1, -1142.96936, 4.897979)">
                    <g>
                        <g>
                            <path class="st0"
                                  d="M1845.4,1290h-99.1c-3.4,0-6.2-2.8-6.2-6.2s2.8-6.2,6.2-6.2h92.9v-228.8h-175.5c-2.1,0-4-1.1-5.2-2.8 l-23.9-37.2h-129.9v268.8h131.9c3.4,0,6.2,2.8,6.2,6.2s-2.8,6.2-6.2,6.2h-138.1c-3.4,0-6.2-2.8-6.2-6.2v-281.1 c0-3.4,2.8-6.2,6.2-6.2h139.5c2.1,0,4,1.1,5.2,2.8l23.9,37.2h178.2c3.4,0,6.2,2.8,6.2,6.2v241.1 C1851.6,1287.2,1848.8,1290,1845.4,1290z"
                                  style="fill: #E0E0E2;"/>
                        </g>
                        <g>
                            <path class="st0"
                                  d="M1663.8,1048.8h-165.2c-3.4,0-6.2-2.8-6.2-6.2c0-3.4,2.8-6.2,6.2-6.2h165.2c3.4,0,6.2,2.8,6.2,6.2 C1670,1046.1,1667.2,1048.8,1663.8,1048.8z"
                                  style="fill: #E0E0E2;"/>
                        </g>
                        <g>
                            <path class="st0"
                                  d="M1537.6,1290c-3.4,0-6.2-2.8-6.2-6.2v-210.3c0-3.4,2.8-6.2,6.2-6.2h307.8c3.4,0,6.2,2.8,6.2,6.2 s-2.8,6.2-6.2,6.2h-301.7v204.2C1543.8,1287.2,1541,1290,1537.6,1290z"
                                  style="fill: #E0E0E2;"/>
                        </g>
                        <g>
                            <path class="st0"
                                  d="M1723.6,1339.2h-64.1c-3.4,0-6.2-2.8-6.2-6.2v-135.1h-21.7c-2.4,0-4.6-1.4-5.6-3.6c-1-2.2-0.6-4.8,0.9-6.6 l60-70c1.2-1.4,2.9-2.2,4.7-2.2l0,0c1.8,0,3.5,0.8,4.7,2.2l60,70c1.6,1.8,1.9,4.4,0.9,6.6c-1,2.2-3.2,3.6-5.6,3.6h-21.8V1333 C1729.7,1336.4,1727,1339.2,1723.6,1339.2z M1665.6,1326.9h51.8v-135.1c0-3.4,2.8-6.2,6.2-6.2h14.5l-46.6-54.4l-46.6,54.4h14.5 c3.4,0,6.2,2.8,6.2,6.2V1326.9z"
                                  style="fill: #5193EB;"/>
                        </g>
                        <g>
                            <path class="st0"
                                  d="M1691.5,1290c-3.4,0-6.2-2.8-6.2-6.2v-17.4c0-3.4,2.8-6.2,6.2-6.2c3.4,0,6.2,2.8,6.2,6.2v17.4 C1697.7,1287.2,1694.9,1290,1691.5,1290z"
                                  style="fill: #5193EB;"/>
                        </g>
                        <g>
                            <path class="st0"
                                  d="M1691.5,1257.5c-3.4,0-6.2-2.8-6.2-6.2v-49c0-3.4,2.8-6.2,6.2-6.2c3.4,0,6.2,2.8,6.2,6.2v49 C1697.7,1254.7,1694.9,1257.5,1691.5,1257.5z"
                                  style="fill: #5193EB;"/>
                        </g>
                    </g>
                    <g>
                        <g>
                            <circle class="st0" cx="1580.3" cy="1106.8" r="7.7" style="fill: #5193EB;"/>
                        </g>
                        <g>
                            <circle class="st0" cx="1601.9" cy="1106.8" r="7.7" style="fill: #5193EB;"/>
                        </g>
                        <g>
                            <circle class="st0" cx="1623.4" cy="1106.8" r="7.7" style="fill: #5193EB;"/>
                        </g>
                    </g>
                </g>
            </g>
        </g>
    </g>
</svg>
