<?xml version="1.0" encoding="utf-8"?>
<svg viewBox="0 0 500 500" xmlns="http://www.w3.org/2000/svg">
    <g transform="matrix(1, 0, 0, 1, -1419.168457, -906.335754)">
        <g transform="matrix(1, 0, 0, 1, 1134.082886, 533.197449)">
            <g transform="matrix(1, 0, 0, 1, 1.94249, -546.77771)">
                <g>
                    <path class="st0"
                          d="M688,1258.9H384.4c-10.2,0-18.5-8.3-18.5-18.5v-212.1c0-10.2,8.3-18.5,18.5-18.5H688 c10.2,0,18.5,8.3,18.5,18.5v212.1C706.5,1250.6,698.2,1258.9,688,1258.9z M384.4,1022.2c-3.4,0-6.2,2.8-6.2,6.2v212.1 c0,3.4,2.8,6.2,6.2,6.2H688c3.4,0,6.2-2.8,6.2-6.2v-212.1c0-3.4-2.8-6.2-6.2-6.2H384.4z"
                          style="fill: #E0E0E2;"/>
                </g>
                <g>
                    <path class="st0"
                          d="M659.5,1234.5H412.9c-10.2,0-18.5-8.3-18.5-18.5v-162.9c0-10.2,8.3-18.5,18.5-18.5h246.6 c10.2,0,18.5,8.3,18.5,18.5V1216C677.9,1226.2,669.7,1234.5,659.5,1234.5z M412.9,1047c-3.4,0-6.2,2.8-6.2,6.2V1216 c0,3.4,2.8,6.2,6.2,6.2h246.6c3.4,0,6.2-2.8,6.2-6.2v-162.9c0-3.4-2.8-6.2-6.2-6.2H412.9z"
                          style="fill: #E0E0E2;"/>
                </g>
                <g>
                    <path class="st0"
                          d="M536.2,1325.8H372.1c-15.8,0-27.6-4.6-35.1-13.6c-11.3-13.7-8-32.1-7.8-32.9c0.3-1.5,1.1-2.9,2.4-3.8 l36.9-27.6c2.7-2,6.6-1.5,8.6,1.2c2,2.7,1.5,6.6-1.2,8.6l-34.8,26.1c-0.3,4.2-0.3,13.7,5.5,20.6c5.1,6.1,13.7,9.1,25.6,9.1h164.1 c3.4,0,6.2,2.8,6.2,6.2S539.6,1325.8,536.2,1325.8z"
                          style="fill: #E0E0E2;"/>
                </g>
                <g>
                    <path class="st0"
                          d="M700.3,1325.8H536.2c-3.4,0-6.2-2.8-6.2-6.2s2.8-6.2,6.2-6.2h164.1c11.9,0,20.6-3.1,25.6-9.2 c5.7-6.9,5.8-16.3,5.5-20.6l-34.8-26.1c-2.7-2-3.3-5.9-1.2-8.6c2-2.7,5.9-3.3,8.6-1.2l36.9,27.6c1.2,0.9,2.1,2.3,2.4,3.8 c0.1,0.8,3.5,19.2-7.8,32.9C727.9,1321.2,716.1,1325.8,700.3,1325.8z"
                          style="fill: #E0E0E2;"/>
                </g>
                <g>
                    <path class="st0"
                          d="M560.3,1304.7h-46.4c-1.7,0-3.2-0.7-4.4-1.8l-16-16.3H335.2c-3.4,0-6.2-2.8-6.2-6.2s2.8-6.2,6.2-6.2h160.9 c1.7,0,3.2,0.7,4.4,1.8l16,16.3h41l14.2-16.1c1.2-1.3,2.8-2.1,4.6-2.1h160.9c3.4,0,6.2,2.8,6.2,6.2s-2.8,6.2-6.2,6.2H579.1 l-14.2,16.1C563.7,1303.9,562,1304.7,560.3,1304.7z"
                          style="fill: #E0E0E2;"/>
                </g>
                <g>
                    <path class="st0"
                          d="M487.9,1172c-2,0-4-1-5.2-2.8c-6.7-10.3-10.2-22.2-10.2-34.6c0-35.1,28.6-63.7,63.7-63.7 c9.8,0,19.2,2.2,28,6.5c3.1,1.5,4.3,5.2,2.8,8.2c-1.5,3-5.2,4.3-8.2,2.8c-7.1-3.5-14.7-5.2-22.6-5.2c-28.3,0-51.4,23-51.4,51.4 c0,9.9,2.8,19.6,8.2,27.9c1.9,2.9,1,6.7-1.8,8.5C490.2,1171.6,489,1172,487.9,1172z"
                          style="fill: #5193EB;"/>
                </g>
                <g>
                    <path class="st0"
                          d="M536.2,1198.2c-9,0-17.7-1.8-25.8-5.4c-3.1-1.4-4.5-5-3.1-8.1c1.4-3.1,5-4.5,8.1-3.1 c6.6,2.9,13.5,4.4,20.8,4.4c28.3,0,51.4-23,51.4-51.4c0-8.7-2.2-17.3-6.4-24.9c-1.7-3-0.6-6.7,2.4-8.4c3-1.7,6.7-0.6,8.4,2.4 c5.2,9.4,8,20,8,30.8C599.9,1169.7,571.3,1198.2,536.2,1198.2z"
                          style="fill: #5193EB;"/>
                </g>
                <g>
                    <path class="st0"
                          d="M515.1,1211.8c-2.1,0-4.2-1.1-5.3-3l-10.3-17.4c-1.5-2.6-1-5.9,1.3-7.8L517,1170c2.6-2.2,6.5-1.8,8.7,0.7 c2.2,2.6,1.9,6.5-0.7,8.7l-12.1,10.2l7.6,12.9c1.7,2.9,0.8,6.7-2.2,8.4C517.3,1211.5,516.2,1211.8,515.1,1211.8z"
                          style="fill: #5193EB;"/>
                </g>
                <g>
                    <path class="st0"
                          d="M545.9,1101.5c-2,0-4-1-5.2-2.9c-1.8-2.9-1-6.7,1.9-8.5l13.4-8.4l-5.8-13.8c-1.3-3.1,0.2-6.7,3.3-8.1 c3.1-1.3,6.7,0.2,8.1,3.3l7.8,18.6c1.2,2.8,0.2,6-2.4,7.6l-17.8,11.2C548.1,1101.2,547,1101.5,545.9,1101.5z"
                          style="fill: #5193EB;"/>
                </g>
                <g>
                    <path class="st0"
                          d="M536.2,1159.6c-3.4,0-6.2-2.8-6.2-6.2v-39.2c0-3.4,2.8-6.2,6.2-6.2c3.4,0,6.2,2.8,6.2,6.2v39.2 C542.3,1156.8,539.6,1159.6,536.2,1159.6z"
                          style="fill: #5193EB;"/>
                </g>
            </g>
        </g>
    </g>
</svg>
